<svg width="24" height="24" viewBox="0 0 24 24" fill="none" xmlns="http://www.w3.org/2000/svg">
<path fill-rule="evenodd" clip-rule="evenodd" d="M10.0261 12.0206L6.03952 8.03401C5.90228 7.90458 5.7924 7.74892 5.71641 7.57625C5.64041 7.40359 5.59983 7.21742 5.59708 7.02879C5.59432 6.84015 5.62945 6.65288 5.70037 6.47806C5.77129 6.30324 5.87658 6.14442 6.00998 6.01101C6.14339 5.87761 6.3022 5.77233 6.47702 5.7014C6.65185 5.63048 6.83912 5.59536 7.02775 5.59811C7.21639 5.60086 7.40255 5.64144 7.57522 5.71744C7.74789 5.79344 7.90354 5.90331 8.03298 6.04056L12.0205 10.028L16.0082 6.04027C16.1377 5.90302 16.2933 5.79313 16.466 5.71712C16.6387 5.64111 16.8248 5.60052 17.0135 5.59775C17.2021 5.59498 17.3894 5.6301 17.5642 5.70101C17.739 5.77192 17.8978 5.87719 18.0312 6.01059C18.1646 6.14398 18.2699 6.30279 18.3408 6.47761C18.4117 6.65242 18.4468 6.83969 18.4441 7.02833C18.4413 7.21697 18.4007 7.40313 18.3247 7.5758C18.2487 7.74848 18.1388 7.90414 18.0015 8.03359L14.0146 12.0205L18.0021 16.008C18.1394 16.1374 18.2492 16.2931 18.3252 16.4657C18.4012 16.6384 18.4418 16.8246 18.4446 17.0132C18.4473 17.2018 18.4122 17.3891 18.3413 17.5639C18.2703 17.7388 18.1651 17.8976 18.0317 18.031C17.8982 18.1644 17.7394 18.2697 17.5646 18.3406C17.3898 18.4115 17.2025 18.4466 17.0139 18.4439C16.8252 18.4411 16.6391 18.4005 16.4664 18.3246C16.2937 18.2486 16.1381 18.1387 16.0087 18.0014L12.0212 14.014L8.03341 18.0017C7.90396 18.139 7.7483 18.2489 7.57562 18.3249C7.40295 18.4009 7.21679 18.4415 7.02815 18.4442C6.83952 18.447 6.65224 18.4119 6.47743 18.341C6.30261 18.2701 6.1438 18.1648 6.01041 18.0314C5.87701 17.898 5.77174 17.7392 5.70083 17.5644C5.62992 17.3896 5.59481 17.2023 5.59757 17.0137C5.60034 16.825 5.64093 16.6389 5.71694 16.4662C5.79296 16.2935 5.90284 16.1378 6.04009 16.0084L10.0261 12.0206Z" fill="#5F6266"/>
</svg>
